<?xml version="1.0" encoding="UTF-8"?>
<svg width="116px" height="30px" viewBox="0 0 116 30" version="1.1" xmlns="http://www.w3.org/2000/svg" xmlns:xlink="http://www.w3.org/1999/xlink">
    <title>app-store</title>
    <g id="Page-1" stroke="none" stroke-width="1" fill="none" fill-rule="evenodd">
        <g id="Artboard" transform="translate(-37.000000, -137.000000)" fill="#2A106C" fill-rule="nonzero">
            <g id="app-store" transform="translate(37.000000, 137.000000)">
                <g id="icon">
                    <path d="M18.3703131,14.3621843 C18.3416577,10.9480661 21.1689927,9.28869023 21.2931662,9.21239709 C19.6884625,6.88545621 17.2049925,6.56121035 16.335778,6.53260042 C14.253484,6.31325763 12.2285007,7.78190064 11.1682501,7.78190064 C10.0888958,7.78190064 8.44598489,6.56121035 6.68845227,6.58982028 C4.42467385,6.62796685 2.29462073,7.93448693 1.138852,9.97532852 C-1.25865173,14.1237682 0.527536311,20.2272197 2.82952196,23.584118 C3.98529069,25.2244206 5.32254377,27.0649927 7.08962819,26.9982362 C8.80895358,26.9314797 9.4584765,25.9015222 11.5312188,25.9015222 C13.5944092,25.9015222 14.1961731,26.9982362 15.991913,26.9600896 C17.8449637,26.9314797 19.0007324,25.3102504 20.1182939,23.6508745 C21.4459952,21.7721558 21.9808964,19.9125105 22,19.817144 C21.952241,19.7980708 18.4085203,18.4438675 18.3703131,14.3621843" id="Fill-2"></path>
                    <path d="M14.9794213,4.3296359 C15.9059467,3.1757021 16.536366,1.60215601 16.3644335,0 C15.0271804,0.0572198577 13.3460622,0.925054366 12.3813297,2.05991488 C11.5312188,3.06126239 10.7670742,4.69202833 10.9581103,6.22742784 C12.4672959,6.34186756 14.0146888,5.46449641 14.9794213,4.3296359" id="Fill-3"></path>
                </g>
                <g id="Group" transform="translate(31.000000, 11.000000)">
                    <path d="M11.9712897,14.7471503 L9.55012999,14.7471503 L8.22425681,10.4746114 L3.61252402,10.4746114 L2.35390528,14.7471503 L2.18402215e-15,14.7471503 L4.56369391,0.206735751 L7.38838024,0.206735751 L11.9712897,14.7471503 Z M7.83033797,8.68290155 L6.62936589,4.89274611 C6.50446479,4.49896373 6.26427037,3.59326425 5.91839041,2.15595855 L5.87035153,2.15595855 C5.72623488,2.7761658 5.50525602,3.69170984 5.19780717,4.89274611 L4.01605064,8.68290155 L7.83033797,8.68290155 Z" id="Fill-4"></path>
                    <path d="M23.702385,9.38186528 C23.702385,11.1637306 23.2316039,12.5715026 22.280434,13.6051813 C21.4349497,14.5305699 20.3780943,14.9834197 19.1290833,14.9834197 C17.7743868,14.9834197 16.8040014,14.4911917 16.2083192,13.4968912 L16.2083192,19 L13.9312761,19 L13.9312761,7.70829016 C13.9312761,6.58601036 13.9024528,5.44404145 13.8448061,4.2626943 L15.8432237,4.2626943 L15.9681248,5.92642487 L16.0065559,5.92642487 C16.7655702,4.6761658 17.9185034,4.04611399 19.4557477,4.04611399 C20.6663276,4.04611399 21.6655363,4.53834197 22.4725896,5.51295337 C23.2988584,6.49740933 23.702385,7.77720207 23.702385,9.38186528 L23.702385,9.38186528 Z M21.3869108,9.46062176 C21.3869108,8.43678756 21.165932,7.6 20.7143665,6.94041451 C20.2243698,6.25129534 19.5614333,5.90673575 18.7351645,5.90673575 C18.1779134,5.90673575 17.6687013,6.10362694 17.207528,6.47772021 C16.7559625,6.86165803 16.4485136,7.35388601 16.3140047,7.97409326 C16.2467503,8.25958549 16.2083192,8.49585492 16.2083192,8.68290155 L16.2083192,10.4352332 C16.2083192,11.1932642 16.4389058,11.8430052 16.8904713,12.3647668 C17.3420368,12.8865285 17.937719,13.1523316 18.66791,13.1523316 C19.5230021,13.1523316 20.1859387,12.807772 20.6663276,12.138342 C21.1467164,11.4590674 21.3869108,10.573057 21.3869108,9.46062176 Z" id="Fill-5"></path>
                    <path d="M35.4623036,9.38186528 C35.4623036,11.1637306 34.9915226,12.5715026 34.0403527,13.6051813 C33.1948683,14.5305699 32.1380129,14.9834197 30.8890019,14.9834197 C29.5343054,14.9834197 28.56392,14.4911917 27.9682378,13.4968912 L27.9682378,19 L25.6911948,19 L25.6911948,7.70829016 C25.6911948,6.58601036 25.6623714,5.44404145 25.6047248,4.2626943 L27.6031423,4.2626943 L27.7280434,5.92642487 L27.7664745,5.92642487 C28.5254889,4.6761658 29.6784221,4.04611399 31.2156663,4.04611399 C32.4262462,4.04611399 33.425455,4.53834197 34.2325082,5.51295337 C35.058777,6.49740933 35.4623036,7.77720207 35.4623036,9.38186528 Z M33.1468294,9.46062176 C33.1468294,8.43678756 32.9258506,7.6 32.4742851,6.94041451 C31.9842885,6.25129534 31.3213519,5.90673575 30.4950831,5.90673575 C29.937832,5.90673575 29.4286199,6.10362694 28.9674466,6.47772021 C28.5158811,6.86165803 28.21804,7.35388601 28.0739234,7.97409326 C28.0066689,8.25958549 27.9682378,8.49585492 27.9682378,8.68290155 L27.9682378,10.4352332 C27.9682378,11.1932642 28.1988245,11.8430052 28.65039,12.3647668 C29.1019555,12.8865285 29.6976376,13.1523316 30.4278286,13.1523316 C31.2829208,13.1523316 31.9554651,12.807772 32.4262462,12.138342 C32.9162428,11.4590674 33.1468294,10.573057 33.1468294,9.46062176 Z" id="Fill-6"></path>
                    <path d="M48.6249576,10.6715026 C48.6249576,11.9119171 48.2022154,12.9160622 47.3663389,13.6937824 C46.4439923,14.5404145 45.1565502,14.9637306 43.5040127,14.9637306 C41.9763762,14.9637306 40.7561885,14.6585492 39.833842,14.0580311 L40.3622697,12.1186528 C41.3614785,12.719171 42.456765,13.0243523 43.6481293,13.0243523 C44.5032214,13.0243523 45.1757658,12.8274611 45.6465469,12.4336788 C46.1269357,12.0398964 46.3671301,11.5082902 46.3671301,10.8487047 C46.3671301,10.2580311 46.1653668,9.76580311 45.7810557,9.36217617 C45.3871369,8.95854922 44.7338081,8.58445596 43.8210693,8.23989637 C41.3134396,7.28497409 40.0740364,5.89689119 40.0740364,4.07564767 C40.0740364,2.88445596 40.5159941,1.90984456 41.3903018,1.14196891 C42.2646095,0.383937824 43.4271504,2.84171075e-16 44.8779247,2.84171075e-16 C46.1653668,2.84171075e-16 47.2414378,0.22642487 48.0965299,0.689119171 L47.5200633,2.57927461 C46.7130101,2.13626943 45.8098791,1.90984456 44.7914547,1.90984456 C43.9940093,1.90984456 43.359896,2.11658031 42.9083305,2.51036269 C42.5336272,2.8746114 42.3414717,3.30777202 42.3414717,3.82953368 C42.3414717,4.40051813 42.5624505,4.88290155 42.9948005,5.24715026 C43.3695038,5.59170984 44.0612637,5.96580311 45.0604725,6.36943005 C46.2806601,6.87150259 47.1741833,7.46217617 47.7506499,8.14145078 C48.3367243,8.82072539 48.6249576,9.66735751 48.6249576,10.6715026" id="Fill-7"></path>
                    <path d="M56.1574545,6.01502591 L53.6498248,6.01502591 L53.6498248,11.1046632 C53.6498248,12.3943005 54.0917825,13.0440415 54.975698,13.0440415 C55.3792246,13.0440415 55.7154968,13.0046632 55.9845145,12.9357513 L56.051769,14.707772 C55.6002035,14.8751295 55.0141291,14.9637306 54.2839381,14.9637306 C53.3808071,14.9637306 52.6890471,14.6782383 52.179835,14.1170984 C51.6706228,13.5559585 51.4208206,12.6108808 51.4208206,11.2917098 L51.4208206,6.00518135 L49.9316152,6.00518135 L49.9316152,4.2626943 L51.4208206,4.2626943 L51.4208206,2.34300518 L53.6498248,1.65388601 L53.6498248,4.2626943 L56.1574545,4.2626943 L56.1574545,6.01502591" id="Fill-8"></path>
                    <path d="M67.4369843,9.42124352 C67.4369843,11.0357513 66.9854188,12.3549223 66.0918956,13.388601 C65.1503334,14.4518135 63.9013225,14.9834197 62.3448627,14.9834197 C60.8460495,14.9834197 59.6450774,14.4715026 58.7515542,13.457513 C57.858031,12.4435233 57.4160732,11.153886 57.4160732,9.5984456 C57.4160732,7.97409326 57.8772465,6.64507772 58.7899853,5.61139896 C59.7123319,4.57772021 60.9517351,4.05595855 62.5081949,4.05595855 C64.007008,4.05595855 65.2175879,4.56787565 66.1303267,5.59170984 C67.0046343,6.5761658 67.4369843,7.85595855 67.4369843,9.42124352 L67.4369843,9.42124352 Z M65.083079,9.47046632 C65.083079,8.50569948 64.8813157,7.68860104 64.4777891,6.99948187 C63.9974002,6.1626943 63.3152481,5.7492228 62.4313327,5.7492228 C61.5185939,5.7492228 60.8172262,6.1626943 60.3464451,6.99948187 C59.9333107,7.68860104 59.7411552,8.5253886 59.7411552,9.51968912 C59.7411552,10.484456 59.9429185,11.311399 60.3464451,11.9906736 C60.8364417,12.8274611 61.5282017,13.2409326 62.4121171,13.2409326 C63.276817,13.2409326 63.9589691,12.8176166 64.4585735,11.9709845 C64.8717079,11.2621762 65.083079,10.4352332 65.083079,9.47046632 L65.083079,9.47046632 Z" id="Fill-9"></path>
                    <path d="M74.8349723,6.31036269 C74.6139934,6.27098446 74.373799,6.25129534 74.1143891,6.25129534 C73.3169436,6.25129534 72.6924381,6.55647668 72.2600882,7.17668394 C71.8853849,7.71813472 71.6932293,8.41709845 71.6932293,9.24404145 L71.6932293,14.7471503 L69.4161863,14.7471503 L69.4161863,7.56062176 C69.4161863,6.34974093 69.3969707,5.24715026 69.3489318,4.2626943 L71.3281338,4.2626943 L71.4146038,6.27098446 L71.4818583,6.27098446 C71.7220527,5.58186528 72.096756,5.02072539 72.6155759,4.60725389 C73.1247881,4.23316062 73.6724313,4.04611399 74.2585057,4.04611399 C74.4698768,4.04611399 74.6620323,4.06580311 74.8253645,4.08549223 L74.8349723,6.31036269" id="Fill-10"></path>
                    <path d="M85,9.00777202 C85,9.42124352 84.9711767,9.77564767 84.91353,10.0611399 L78.0920086,10.0611399 C78.1208319,11.0948187 78.4474963,11.892228 79.0816096,12.4336788 C79.6580762,12.9160622 80.397875,13.1621762 81.3106138,13.1621762 C82.3194303,13.1621762 83.2417769,12.9948187 84.0680457,12.6699482 L84.4235334,14.284456 C83.453148,14.7176166 82.3098225,14.9341969 80.9935571,14.9341969 C79.408274,14.9341969 78.159263,14.4518135 77.256132,13.4968912 C76.353001,12.5419689 75.9014355,11.2523316 75.9014355,9.64766839 C75.9014355,8.07253886 76.3241777,6.75336788 77.169662,5.7 C78.0535775,4.57772021 79.2449418,4.01658031 80.7437549,4.01658031 C82.2137448,4.01658031 83.3378546,4.57772021 84.0872612,5.7 C84.6925511,6.60569948 85,7.6984456 85,9.00777202 L85,9.00777202 Z M82.8286425,8.40725389 C82.847858,7.71813472 82.6941336,7.11761658 82.3866848,6.61554404 C81.9927659,5.96580311 81.387476,5.64093264 80.5804227,5.64093264 C79.8406239,5.64093264 79.235334,5.95595855 78.7741607,6.58601036 C78.3994574,7.0880829 78.1688708,7.6984456 78.1016164,8.39740933 L82.8286425,8.40725389 L82.8286425,8.40725389 Z" id="Fill-11"></path>
                </g>
                <g id="Available-on-the" transform="translate(32.000000, 1.000000)">
                    <path d="M5.87395577,6.89175258 L4.68574939,6.89175258 L4.03415233,4.97036082 L1.77272727,4.97036082 L1.14987715,6.89175258 L0,6.89175258 L2.23267813,0.342783505 L3.61253071,0.342783505 L5.87395577,6.89175258 Z M3.83292383,4.15850515 L3.24840295,2.44458763 C3.19090909,2.27319588 3.07592138,1.85824742 2.89385749,1.20876289 L2.87469287,1.20876289 C2.7980344,1.48840206 2.7022113,1.8943299 2.53931204,2.44458763 L1.96437346,4.15850515 L3.83292383,4.15850515 Z" id="Fill-12"></path>
                    <path d="M11.4700246,2.16494845 L9.57272727,6.89175258 L8.48992629,6.89175258 L6.65012285,2.16494845 L7.84791155,2.16494845 L8.7007371,4.66365979 C8.84447174,5.07860825 8.96904177,5.47551546 9.06486486,5.85438144 L9.09361179,5.85438144 C9.17985258,5.51159794 9.3044226,5.11469072 9.45773956,4.66365979 L10.3009828,2.16494845 L11.4700246,2.16494845" id="Fill-13"></path>
                    <path d="M15.5137592,6.89175258 L15.4275184,6.35051546 L15.3987715,6.35051546 C15.0538084,6.78350515 14.5651106,7 13.9326781,7 C13.031941,7 12.3995086,6.40463918 12.3995086,5.61082474 C12.3995086,4.44716495 13.4727273,3.84278351 15.3316953,3.84278351 L15.3316953,3.75257732 C15.3316953,3.13015464 14.9771499,2.82345361 14.2872236,2.82345361 C13.7889435,2.82345361 13.3577396,2.94072165 12.9744472,3.17525773 L12.7444717,2.48969072 C13.2044226,2.21907216 13.7889435,2.08376289 14.4692875,2.08376289 C15.7820639,2.08376289 16.4432432,2.73324742 16.4432432,4.04123711 L16.4432432,5.78221649 C16.4432432,6.26030928 16.4624079,6.63015464 16.5199017,6.90979381 L15.5137592,6.89175258 L15.5137592,6.89175258 Z M15.3604423,4.53737113 C14.1243243,4.53737113 13.5014742,4.81701031 13.5014742,5.4935567 C13.5014742,5.98969072 13.8176904,6.23324742 14.268059,6.23324742 C14.8334152,6.23324742 15.3604423,5.82731959 15.3604423,5.26804124 L15.3604423,4.53737113 Z" id="Fill-14"></path>
                    <path d="M18.9250614,1.38917526 C18.5513514,1.38917526 18.2638821,1.1185567 18.2638821,0.757731959 C18.2638821,0.396907216 18.5609337,0.135309278 18.944226,0.135309278 C19.3275184,0.135309278 19.6341523,0.396907216 19.62457,0.757731959 C19.62457,1.13659794 19.3371007,1.38917526 18.9250614,1.38917526 L18.9250614,1.38917526 Z M18.3884521,2.16494845 L19.5,2.16494845 L19.5,6.88273196 L18.3884521,6.88273196 L18.3884521,2.16494845 Z" id="Fill-15"></path>
                    <polygon id="Fill-16" points="21.4835381 -2.60387359e-16 22.595086 -2.60387359e-16 22.595086 6.88273196 21.4835381 6.88273196"></polygon>
                    <path d="M27.3287469,6.89175258 L27.2425061,6.35051546 L27.2137592,6.35051546 C26.8687961,6.78350515 26.3800983,7 25.7476658,7 C24.8469287,7 24.2144963,6.40463918 24.2144963,5.61082474 C24.2144963,4.44716495 25.287715,3.84278351 27.146683,3.84278351 L27.146683,3.75257732 C27.146683,3.13015464 26.7921376,2.82345361 26.1022113,2.82345361 C25.6039312,2.82345361 25.1727273,2.94072165 24.7894349,3.17525773 L24.5594595,2.4806701 C25.0194103,2.21005155 25.6039312,2.07474227 26.2842752,2.07474227 C27.5970516,2.07474227 28.258231,2.7242268 28.258231,4.03221649 L28.258231,5.77319588 C28.258231,6.25128866 28.2773956,6.62113402 28.3253071,6.9007732 L27.3287469,6.9007732 L27.3287469,6.89175258 L27.3287469,6.89175258 Z M27.17543,4.53737113 C25.939312,4.53737113 25.3164619,4.81701031 25.3164619,5.4935567 C25.3164619,5.98969072 25.6326781,6.23324742 26.0830467,6.23324742 C26.6484029,6.23324742 27.17543,5.82731959 27.17543,5.26804124 L27.17543,4.53737113 Z" id="Fill-17"></path>
                    <path d="M32.7810811,7 C32.0719902,7 31.5449631,6.72036082 31.2,6.16108247 L31.1808354,6.16108247 L31.1137592,6.89175258 L30.1651106,6.89175258 C30.1938575,6.5128866 30.2034398,6.08891753 30.2034398,5.61984536 L30.2034398,0 L31.32457,0 L31.32457,2.85953608 L31.3437346,2.85953608 C31.6791155,2.33634021 32.2061425,2.07474227 32.9439803,2.07474227 C34.1513514,2.07474227 34.9945946,3.04896907 34.9945946,4.46520619 C34.9945946,5.92654639 34.0555283,7 32.7810811,7 L32.7810811,7 Z M32.5511057,2.89561856 C31.9090909,2.89561856 31.32457,3.41881443 31.32457,4.14948454 L31.32457,4.97938144 C31.32457,5.62886598 31.8515971,6.16108247 32.531941,6.16108247 C33.365602,6.16108247 33.8638821,5.52061856 33.8638821,4.50128866 C33.8638821,3.54510309 33.3464373,2.89561856 32.5511057,2.89561856 L32.5511057,2.89561856 Z" id="Fill-18"></path>
                    <polygon id="Fill-19" points="36.6427518 -2.60387359e-16 37.7542998 -2.60387359e-16 37.7542998 6.88273196 36.6427518 6.88273196"></polygon>
                    <path d="M43.8199017,4.78092784 L40.4756757,4.78092784 C40.4948403,5.67396907 41.1272727,6.17912371 42.0567568,6.17912371 C42.5550369,6.17912371 43.0054054,6.09793814 43.4078624,5.95360825 L43.580344,6.68427835 C43.1108108,6.88273196 42.5550369,6.97293814 41.9034398,6.97293814 C40.331941,6.97293814 39.402457,6.04381443 39.402457,4.59149485 C39.402457,3.14819588 40.3511057,2.05670103 41.7788698,2.05670103 C43.053317,2.05670103 43.8678133,2.94974227 43.8678133,4.30283505 C43.8678133,4.49226804 43.858231,4.65463918 43.8199017,4.78092784 Z M42.8041769,4.03221649 C42.8041769,3.30154639 42.4113022,2.78737113 41.7022113,2.78737113 C41.0601966,2.78737113 40.5619165,3.31056701 40.485258,4.03221649 L42.8041769,4.03221649 Z" id="Fill-20"></path>
                    <path d="M50.57543,7 C49.1093366,7 48.160688,5.97164948 48.160688,4.57345361 C48.160688,3.1121134 49.1285012,2.07474227 50.6616708,2.07474227 C52.1085995,2.07474227 53.0764128,3.05798969 53.0764128,4.49226804 C53.0764128,5.96262887 52.0798526,7 50.57543,7 Z M50.6233415,2.84149485 C49.8184275,2.84149485 49.3009828,3.55412371 49.3009828,4.53737113 C49.3009828,5.51159794 49.8280098,6.21520619 50.6137592,6.21520619 C51.3995086,6.21520619 51.9265356,5.45747423 51.9265356,4.51030928 C51.9169533,3.55412371 51.4090909,2.84149485 50.6233415,2.84149485 L50.6233415,2.84149485 Z" id="Fill-21"></path>
                    <path d="M59.0653563,6.89175258 L57.9538084,6.89175258 L57.9538084,4.17654639 C57.9538084,3.33762887 57.6088452,2.92268041 56.9380835,2.92268041 C56.2769042,2.92268041 55.8265356,3.45489691 55.8265356,4.07731959 L55.8265356,6.88273196 L54.7149877,6.88273196 L54.7149877,3.51804124 C54.7149877,3.10309278 54.7054054,2.65206186 54.6766585,2.16494845 L55.6540541,2.16494845 L55.7019656,2.89561856 L55.7307125,2.89561856 C56.0277641,2.39046392 56.6410319,2.06572165 57.3213759,2.06572165 C58.37543,2.06572165 59.0653563,2.82345361 59.0653563,4.05927835 L59.0653563,6.89175258" id="Fill-22"></path>
                    <path d="M66.3574939,2.95876289 L65.1309582,2.95876289 L65.1309582,5.25 C65.1309582,5.83634021 65.3513514,6.125 65.7825553,6.125 C65.9742015,6.125 66.146683,6.10695876 66.2808354,6.07989691 L66.3095823,6.87371134 C66.0891892,6.95489691 65.8017199,6.99097938 65.4471744,6.99097938 C64.565602,6.99097938 64.0481572,6.53092784 64.0481572,5.34020619 L64.0481572,2.95876289 L63.3199017,2.95876289 L63.3199017,2.17396907 L64.0481572,2.17396907 L64.0481572,1.30798969 L65.1405405,0.992268041 L65.1405405,2.16494845 L66.3670762,2.16494845 L66.3670762,2.95876289" id="Fill-23"></path>
                    <path d="M72.2601966,6.89175258 L71.1486486,6.89175258 L71.1486486,4.19458763 C71.1486486,3.34664948 70.8036855,2.92268041 70.1329238,2.92268041 C69.5579853,2.92268041 69.0213759,3.29252577 69.0213759,4.04123711 L69.0213759,6.88273196 L67.909828,6.88273196 L67.909828,-2.60387359e-16 L69.0213759,-2.60387359e-16 L69.0213759,2.83247423 L69.0405405,2.83247423 C69.395086,2.31829897 69.8933661,2.06572165 70.5449631,2.06572165 C71.6085995,2.06572165 72.2601966,2.84149485 72.2601966,4.07731959 L72.2601966,6.89175258" id="Fill-24"></path>
                    <path d="M77.9520885,4.78092784 L74.6078624,4.78092784 C74.627027,5.67396907 75.2594595,6.17912371 76.1889435,6.17912371 C76.6872236,6.17912371 77.1375921,6.09793814 77.5400491,5.95360825 L77.7125307,6.68427835 C77.2429975,6.88273196 76.6872236,6.97293814 76.0356265,6.97293814 C74.4641278,6.97293814 73.5346437,6.04381443 73.5346437,4.59149485 C73.5346437,3.14819588 74.4832924,2.05670103 75.9110565,2.05670103 C77.1855037,2.05670103 78,2.94974227 78,4.30283505 C78,4.49226804 77.9904177,4.65463918 77.9520885,4.78092784 L77.9520885,4.78092784 Z M76.9363636,4.03221649 C76.9363636,3.30154639 76.5434889,2.78737113 75.834398,2.78737113 C75.1923833,2.78737113 74.6845209,3.31056701 74.6174447,4.03221649 L76.9363636,4.03221649 Z" id="Fill-25"></path>
                </g>
            </g>
        </g>
    </g>
</svg>