<?xml version="1.0" encoding="UTF-8"?>
<svg width="117px" height="30px" viewBox="0 0 117 30" version="1.1" xmlns="http://www.w3.org/2000/svg" xmlns:xlink="http://www.w3.org/1999/xlink">
    <title>g-play</title>
    <g id="Page-1" stroke="none" stroke-width="1" fill="none" fill-rule="evenodd">
        <g id="Artboard" transform="translate(-37.000000, -196.000000)" fill="#2A106C">
            <g id="g-play" transform="translate(37.936750, 196.000000)">
                <path d="M34.5392625,3.80394926 C34.5392625,4.72611878 34.3228856,5.5330171 33.7819435,6.10937305 C33.1328129,6.80100019 32.3754938,7.14681376 31.401798,7.14681376 C30.4281021,7.14681376 29.670783,6.80100019 29.0216525,6.10937305 C28.3725219,5.41774591 28.0479566,4.61084759 28.0479566,3.57340688 C28.0479566,2.53596617 28.3725219,1.72906784 29.0216525,1.03744071 C29.670783,0.345813569 30.4281021,0 31.401798,0 C31.8345517,0 32.2673054,0.11527119 32.7000591,0.345813569 C33.1328129,0.576355948 33.4573782,0.806898328 33.673755,1.1527119 L33.1328129,1.72906784 C32.7000591,1.1527119 32.159117,0.922169517 31.401798,0.922169517 C30.7526674,0.922169517 30.1035368,1.1527119 29.670783,1.72906784 C29.1298409,2.1901526 28.913464,2.88177974 28.913464,3.68867807 C28.913464,4.4955764 29.1298409,5.18720353 29.670783,5.64828829 C30.2117252,6.10937305 30.7526674,6.45518662 31.401798,6.45518662 C32.159117,6.45518662 32.7000591,6.22464424 33.2410013,5.64828829 C33.5655666,5.30247472 33.7819435,4.84138997 33.7819435,4.26503402 L31.401798,4.26503402 L31.401798,3.3428645 L34.5392625,3.3428645 L34.5392625,3.80394926 Z M39.5159304,0.922169517 L36.5948427,0.922169517 L36.5948427,3.11232212 L39.2995535,3.11232212 L39.2995535,3.91922045 L36.5948427,3.91922045 L36.5948427,6.10937305 L39.5159304,6.10937305 L39.5159304,7.03154257 L35.7293352,7.03154257 L35.7293352,0.11527119 L39.5159304,0.11527119 L39.5159304,0.922169517 Z M43.0861486,7.03154257 L42.2206412,7.03154257 L42.2206412,0.922169517 L40.3814378,0.922169517 L40.3814378,0.11527119 L44.925352,0.11527119 L44.925352,0.922169517 L43.0861486,0.922169517 L43.0861486,7.03154257 Z M48.0628165,7.03154257 L48.0628165,0.11527119 L48.928324,0.11527119 L48.928324,7.03154257 L48.0628165,7.03154257 Z M52.6067306,7.03154257 L51.7412232,7.03154257 L51.7412232,0.922169517 L49.9020198,0.922169517 L49.9020198,0.11527119 L54.3377456,0.11527119 L54.3377456,0.922169517 L52.4985422,0.922169517 L52.4985422,7.03154257 L52.6067306,7.03154257 Z M62.8846317,6.10937305 C62.2355011,6.80100019 61.4781821,7.14681376 60.5044862,7.14681376 C59.5307903,7.14681376 58.7734713,6.80100019 58.1243407,6.10937305 C57.4752101,5.41774591 57.1506448,4.61084759 57.1506448,3.57340688 C57.1506448,2.53596617 57.4752101,1.72906784 58.1243407,1.03744071 C58.7734713,0.345813569 59.5307903,0 60.5044862,0 C61.4781821,0 62.2355011,0.345813569 62.8846317,1.03744071 C63.5337623,1.72906784 63.8583276,2.53596617 63.8583276,3.57340688 C63.8583276,4.61084759 63.5337623,5.41774591 62.8846317,6.10937305 Z M58.7734713,5.5330171 C59.206225,5.99410186 59.8553556,6.33991543 60.5044862,6.33991543 C61.1536168,6.33991543 61.8027474,6.10937305 62.2355011,5.5330171 C62.6682548,5.07193235 62.9928201,4.38030521 62.9928201,3.57340688 C62.9928201,2.76650855 62.7764433,2.07488141 62.2355011,1.61379666 C61.8027474,1.1527119 61.1536168,0.806898328 60.5044862,0.806898328 C59.8553556,0.806898328 59.206225,1.03744071 58.7734713,1.61379666 C58.3407175,2.07488141 58.0161522,2.76650855 58.0161522,3.57340688 C58.0161522,4.38030521 58.2325291,5.07193235 58.7734713,5.5330171 Z M65.0484003,7.03154257 L65.0484003,0.11527119 L66.0220962,0.11527119 L69.1595607,5.5330171 L69.1595607,0.11527119 L70.0250682,0.11527119 L70.0250682,7.03154257 L69.1595607,7.03154257 L65.8057194,1.38325428 L65.8057194,7.03154257 L65.0484003,7.03154257 Z" id="Shape" fill-rule="nonzero"></path>
                <path d="M55.4372776,17.0786496 C52.9138309,17.0786496 50.9161022,18.927276 50.9161022,21.4948126 C50.9161022,23.9596478 52.9138309,25.9109757 55.4372776,25.9109757 C57.9607244,25.9109757 59.9584531,24.0623493 59.9584531,21.4948126 C59.9584531,18.8245745 57.9607244,17.0786496 55.4372776,17.0786496 Z M55.4372776,24.0623493 C54.0704106,24.0623493 52.9138309,22.9326332 52.9138309,21.3921112 C52.9138309,19.8515892 54.0704106,18.7218731 55.4372776,18.7218731 C56.8041446,18.7218731 57.9607244,19.7488877 57.9607244,21.3921112 C57.9607244,22.9326332 56.8041446,24.0623493 55.4372776,24.0623493 Z M45.6589214,17.0786496 C43.1354747,17.0786496 41.137746,18.927276 41.137746,21.4948126 C41.137746,23.9596478 43.1354747,25.9109757 45.6589214,25.9109757 C48.1823682,25.9109757 50.1800969,24.0623493 50.1800969,21.4948126 C50.1800969,18.8245745 48.1823682,17.0786496 45.6589214,17.0786496 Z M45.6589214,24.0623493 C44.2920544,24.0623493 43.1354747,22.9326332 43.1354747,21.3921112 C43.1354747,19.8515892 44.2920544,18.7218731 45.6589214,18.7218731 C47.0257884,18.7218731 48.1823682,19.7488877 48.1823682,21.3921112 C48.1823682,22.9326332 47.0257884,24.0623493 45.6589214,24.0623493 Z M33.9879801,18.4137687 L33.9879801,20.2623951 L38.5091556,20.2623951 C38.404012,21.2894097 37.9834375,22.1110214 37.4577194,22.6245288 C36.8268577,23.2407376 35.7754216,23.9596478 33.9879801,23.9596478 C31.1491025,23.9596478 29.0462302,21.802917 29.0462302,19.0299775 C29.0462302,16.2570379 31.2542461,14.1003071 33.9879801,14.1003071 C35.4599907,14.1003071 36.6165705,14.7165159 37.4577194,15.4354262 L38.8245864,14.1003071 C37.6680067,13.0732925 36.195996,12.2516807 34.0931237,12.2516807 C30.3079536,12.2516807 27.0485015,15.3327247 27.0485015,19.0299775 C27.0485015,22.7272302 30.3079536,25.8082742 34.0931237,25.8082742 C36.195996,25.8082742 37.6680067,25.1920654 38.92973,23.8569464 C40.1914534,22.6245288 40.6120279,20.8786038 40.6120279,19.5434848 C40.6120279,19.1326789 40.6120279,18.7218731 40.5068843,18.4137687 L33.9879801,18.4137687 Z M81.7231814,19.8515892 C81.302607,18.8245745 80.2511708,17.0786496 77.9380113,17.0786496 C75.6248518,17.0786496 73.7322667,18.8245745 73.7322667,21.4948126 C73.7322667,23.9596478 75.6248518,25.9109757 78.1482985,25.9109757 C80.1460272,25.9109757 81.4077506,24.6785581 81.8283251,23.9596478 L80.3563144,22.9326332 C79.8305964,23.6515434 79.1997347,24.1650508 78.1482985,24.1650508 C77.0968624,24.1650508 76.4660007,23.7542449 75.9402826,22.8299317 L81.9334687,20.3650965 L81.7231814,19.8515892 Z M75.6248518,21.2894097 C75.6248518,19.6461863 76.9917188,18.7218731 77.9380113,18.7218731 C78.6740166,18.7218731 79.4100219,19.1326789 79.6203091,19.6461863 L75.6248518,21.2894097 Z M70.6831018,25.5001698 L72.6808305,25.5001698 L72.6808305,12.6624866 L70.6831018,12.6624866 L70.6831018,25.5001698 Z M67.5287934,18.0029628 C67.0030753,17.4894555 66.1619264,16.9759482 65.1104902,16.9759482 C62.9024743,16.9759482 60.799602,18.927276 60.799602,21.3921112 C60.799602,23.8569464 62.7973307,25.7055727 65.1104902,25.7055727 C66.1619264,25.7055727 67.0030753,25.1920654 67.4236498,24.6785581 L67.5287934,24.6785581 L67.5287934,25.2947669 C67.5287934,26.9379903 66.5825008,27.8623035 65.1104902,27.8623035 C63.9539105,27.8623035 63.1127615,27.0406918 62.9024743,26.3217815 L61.2201765,27.0406918 C61.7458945,28.1704079 63.0076179,29.6082284 65.2156338,29.6082284 C67.5287934,29.6082284 69.4213785,28.2731094 69.4213785,25.0893639 L69.4213785,17.2840525 L67.5287934,17.2840525 L67.5287934,18.0029628 Z M65.2156338,24.0623493 C63.8487669,24.0623493 62.6921871,22.9326332 62.6921871,21.3921112 C62.6921871,19.8515892 63.8487669,18.7218731 65.2156338,18.7218731 C66.5825008,18.7218731 67.633937,19.8515892 67.633937,21.3921112 C67.633937,22.9326332 66.5825008,24.0623493 65.2156338,24.0623493 Z M90.870676,12.6624866 L86.1392133,12.6624866 L86.1392133,25.5001698 L88.136942,25.5001698 L88.136942,20.6732009 L90.870676,20.6732009 C93.0786919,20.6732009 95.1815642,19.1326789 95.1815642,16.6678438 C95.1815642,14.2030086 93.0786919,12.6624866 90.870676,12.6624866 L90.870676,12.6624866 Z M90.9758196,18.8245745 L88.136942,18.8245745 L88.136942,14.4084115 L90.9758196,14.4084115 C92.4478302,14.4084115 93.2889791,15.6408291 93.2889791,16.5651423 C93.1838355,17.6948584 92.3426866,18.8245745 90.9758196,18.8245745 Z M103.067335,16.9759482 C101.595325,16.9759482 100.123314,17.5921569 99.597596,18.927276 L101.385037,19.6461863 C101.805612,18.927276 102.436474,18.7218731 103.172479,18.7218731 C104.223915,18.7218731 105.170208,19.3380819 105.275351,20.3650965 L105.275351,20.467798 C104.95992,20.2623951 104.118771,19.9542907 103.277623,19.9542907 C101.385037,19.9542907 99.4924524,20.9813053 99.4924524,22.8299317 C99.4924524,24.5758566 101.069607,25.7055727 102.751904,25.7055727 C104.118771,25.7055727 104.749633,25.0893639 105.275351,24.4731551 L105.380495,24.4731551 L105.380495,25.5001698 L107.27308,25.5001698 L107.27308,20.5704995 C107.062793,18.3110672 105.275351,16.9759482 103.067335,16.9759482 L103.067335,16.9759482 Z M102.857048,24.0623493 C102.226186,24.0623493 101.279894,23.7542449 101.279894,22.9326332 C101.279894,21.9056185 102.436474,21.5975141 103.382766,21.5975141 C104.223915,21.5975141 104.64449,21.802917 105.170208,22.00832 C104.95992,23.2407376 103.908484,24.0623493 102.857048,24.0623493 L102.857048,24.0623493 Z M113.897128,17.2840525 L111.689112,22.8299317 L111.583968,22.8299317 L109.270809,17.2840525 L107.167936,17.2840525 L110.637676,25.0893639 L108.639947,29.4028255 L110.637676,29.4028255 L116,17.2840525 L113.897128,17.2840525 Z M96.2330003,25.5001698 L98.230729,25.5001698 L98.230729,12.6624866 L96.2330003,12.6624866 L96.2330003,25.5001698 Z" id="Shape" fill-rule="nonzero"></path>
                <path d="M14.3442586,4.20646493 L26.3758786,25.5634542 C26.6469558,26.0446357 26.4766326,26.6544618 25.9954511,26.925539 C25.8472613,27.0090229 25.6802264,27.0533289 25.5101413,27.0542676 L-0.905063198,27.2000525 C-1.45733954,27.2031005 -1.90751886,26.757863 -1.91056686,26.2055867 C-1.91166973,26.0057538 -1.85287557,25.8101737 -1.74176786,25.644073 L12.6418167,4.14129879 C12.9488842,3.68224757 13.569946,3.55904038 14.0289973,3.86610783 C14.1593123,3.95327787 14.2673054,4.06986756 14.3442586,4.20646493 Z" id="Triangle" transform="translate(12.210453, 15.000000) rotate(90.000000) translate(-12.210453, -15.000000) "></path>
            </g>
        </g>
    </g>
</svg>