<?xml version="1.0" encoding="UTF-8"?>
<svg width="16px" height="18px" viewBox="0 0 16 18" version="1.1" xmlns="http://www.w3.org/2000/svg" xmlns:xlink="http://www.w3.org/1999/xlink">
    <title>gh</title>
    <g id="Page-1" stroke="none" stroke-width="1" fill="none" fill-rule="evenodd" stroke-linecap="round" stroke-linejoin="round">
        <g id="Artboard" transform="translate(-304.000000, -42.000000)" stroke="currentColor">
            <path d="M309.335457,56.7401686 C305.524416,57.8834808 305.524416,54.8346482 304,54.4535441 M314.670914,59.026793 L314.670914,56.0770475 C314.728753,55.3418194 314.467779,54.6172002 313.954438,54.0876842 C316.347772,53.8209114 318.863059,52.9138837 318.863059,48.7522272 C318.862863,47.6880528 318.453518,46.6646906 317.719747,45.8939466 C318.067204,44.9629144 318.042636,43.9338136 317.651148,43.0204219 C317.651148,43.0204219 316.751742,42.7536491 314.670914,44.14849 C312.92394,43.6750229 311.082431,43.6750229 309.335457,44.14849 C307.254629,42.7536491 306.355223,43.0204219 306.355223,43.0204219 C305.963735,43.9338136 305.939167,44.9629144 306.286624,45.8939466 C305.547379,46.6704078 305.137613,47.7030194 305.143254,48.7750934 C305.143254,52.9062616 307.658599,53.8132893 310.051933,54.1105505 C309.544774,54.634617 309.284291,55.3495604 309.335457,56.0770475 L309.335457,59.026793" id="gh"></path>
        </g>
    </g>
</svg>